<?xml version="1.0" standalone="no"?>
<!DOCTYPE svg PUBLIC "-//W3C//DTD SVG 20010904//EN"
 "http://www.w3.org/TR/2001/REC-SVG-20010904/DTD/svg10.dtd">
<svg version="1.0" xmlns="http://www.w3.org/2000/svg"
 width="700.000000pt" height="700.000000pt" viewBox="0 0 700.000000 700.000000"
 preserveAspectRatio="xMidYMid meet">
<metadata>
Created by potrace 1.14, written by Peter Selinger 2001-2017
</metadata>
<g transform="translate(0.000000,700.000000) scale(0.100000,-0.100000)"
fill="#000000" stroke="none">
<path d="M3337 6994 c-1 -1 -42 -4 -92 -8 -194 -13 -325 -34 -636 -101 -51
-11 -272 -81 -362 -115 -176 -66 -351 -148 -485 -228 -29 -18 -55 -32 -57 -32
-4 0 -245 -161 -267 -178 -93 -75 -279 -232 -310 -261 l-39 -38 136 -274 c76
-151 138 -275 140 -277 1 -2 40 34 86 78 381 371 839 638 1289 750 94 23 134
33 140 35 3 1 25 5 50 9 25 5 52 10 60 11 9 2 60 8 115 15 119 14 201 35 208
53 3 7 46 130 97 272 50 143 96 268 101 278 9 16 3 17 -82 15 -50 -2 -91 -4
-92 -4z"/>
<path d="M3355 6371 c-51 -15 -43 -3 -260 -416 -32 -60 -73 -138 -91 -173
l-34 -63 48 6 c26 3 56 7 67 9 78 15 242 26 386 27 118 0 163 -2 299 -18 147
-16 291 -49 440 -99 93 -32 380 -171 380 -185 0 -5 -11 -13 -23 -18 -13 -5
-90 -41 -172 -81 -81 -39 -175 -84 -209 -100 -33 -15 -110 -51 -171 -80 -60
-28 -132 -62 -158 -74 l-48 -23 63 -18 c163 -49 381 -150 513 -238 134 -90
275 -225 380 -362 62 -82 66 -84 179 -110 11 -3 40 -11 65 -19 25 -8 55 -16
66 -19 11 -3 76 -22 145 -42 127 -37 207 -59 338 -95 40 -10 77 -22 82 -25 15
-9 13 -2 -26 103 -84 227 -236 488 -392 675 -78 94 -246 264 -316 321 -21 17
-57 46 -80 65 -22 18 -70 54 -106 79 -113 79 -112 71 -13 103 115 35 300 92
388 118 178 51 200 59 203 73 3 15 -35 53 -103 103 -22 17 -42 32 -45 36 -23
25 -211 146 -331 212 -247 135 -612 253 -900 292 -25 3 -57 8 -70 10 -115 19
-455 37 -494 26z"/>
<path d="M5855 5919 c-66 -39 -145 -85 -176 -102 -185 -105 -249 -143 -249
-147 0 -3 35 -33 78 -68 226 -182 543 -649 693 -1022 80 -199 152 -467 179
-665 23 -171 71 -228 210 -255 36 -7 138 -30 228 -51 90 -22 168 -39 174 -39
10 0 6 277 -6 372 -9 69 -38 233 -53 298 -8 36 -16 72 -18 80 -16 78 -88 313
-132 425 -34 89 -40 102 -83 200 -32 72 -113 235 -157 313 -35 64 -171 282
-183 292 -3 3 -21 28 -40 55 -78 113 -319 386 -339 385 -3 -1 -60 -32 -126
-71z"/>
<path d="M2815 5639 c-16 -6 -66 -21 -110 -35 -118 -38 -325 -141 -445 -222
-144 -97 -245 -180 -375 -309 -185 -183 -286 -324 -287 -402 0 -94 76 -353
149 -508 36 -76 123 -224 162 -272 l19 -24 16 59 c24 84 83 238 122 315 97
195 294 419 465 529 l86 55 38 130 c20 72 73 249 117 395 43 146 81 273 84
283 6 19 2 20 -41 6z"/>
<path d="M1290 5378 c-19 -29 -38 -54 -42 -56 -4 -2 -8 -8 -8 -13 0 -5 -31
-55 -69 -111 -169 -254 -275 -448 -355 -650 -42 -109 -100 -290 -110 -344 -3
-13 -7 -27 -9 -31 -3 -5 -8 -30 -11 -57 -4 -27 -9 -53 -11 -56 -4 -7 -20 -103
-30 -180 -15 -120 -22 -226 -21 -335 1 -160 18 -197 120 -263 113 -74 490
-291 497 -286 4 2 3 21 -1 41 -5 21 -12 76 -15 123 -4 47 -9 99 -11 115 -6 47
-5 333 1 405 4 55 14 125 30 225 11 70 45 204 75 293 43 131 58 163 164 366
26 51 36 81 36 115 0 40 -4 64 -25 151 -2 8 -11 42 -20 75 -9 33 -27 101 -40
150 -13 50 -40 149 -60 220 -21 72 -37 136 -38 143 -1 23 -14 12 -47 -40z"/>
<path d="M3285 5050 c-27 -4 -70 -11 -95 -15 -24 -4 -47 -8 -51 -10 -3 -2 -21
-7 -40 -10 -129 -22 -452 -158 -469 -198 -42 -97 -49 -465 -12 -610 10 -43 22
-80 24 -83 3 -2 39 30 79 72 150 154 347 267 521 299 l36 7 -19 -89 c-28 -122
-29 -126 -44 -233 -25 -180 -16 -330 27 -427 33 -76 84 -135 166 -194 l42 -30
-4 88 c-13 296 99 458 517 743 42 29 77 54 77 56 0 1 -24 8 -52 14 -29 7 -82
18 -118 26 -36 9 -76 17 -90 20 -14 3 -72 16 -130 29 -58 13 -116 26 -130 29
-83 15 -186 40 -193 46 -4 4 16 34 45 66 29 33 80 91 113 129 33 37 76 87 96
109 83 93 128 150 124 155 -11 10 -43 13 -205 16 -91 1 -187 -1 -215 -5z"/>
<path d="M4127 4368 c11 -13 36 -41 56 -63 187 -208 291 -400 326 -599 18
-100 22 -98 -81 -46 -86 43 -191 84 -249 95 -273 56 -501 -19 -620 -204 -16
-25 -29 -48 -29 -51 0 -3 24 -4 53 -1 305 33 524 -120 707 -495 l52 -106 19
31 c61 101 123 319 144 506 2 17 6 59 10 95 4 36 10 68 14 72 10 12 104 -20
131 -45 14 -12 66 -58 115 -102 50 -44 128 -117 175 -162 46 -45 86 -80 88
-78 4 4 6 25 18 225 19 325 1 411 -176 808 l-63 142 -355 0 -355 0 20 -22z"/>
<path d="M5713 4027 c3 -18 12 -68 20 -112 8 -44 19 -109 23 -145 11 -80 12
-421 2 -510 -22 -190 -85 -443 -165 -655 -34 -92 -40 -105 -89 -210 -24 -53
-28 -72 -28 -160 0 -103 4 -121 89 -410 13 -44 33 -113 45 -152 15 -54 25 -73
38 -73 17 1 125 131 216 262 242 347 396 721 465 1128 29 167 32 211 37 451 3
209 3 218 -19 259 -25 47 -22 45 -413 244 l-226 114 5 -31z"/>
<path d="M2577 3959 c-45 -94 -93 -231 -103 -297 -3 -19 -8 -44 -10 -56 -9
-41 -5 -242 5 -268 20 -53 99 -109 206 -146 54 -19 96 -25 180 -28 163 -5 296
26 426 98 61 34 159 118 159 136 0 5 -46 19 -102 31 -127 28 -278 76 -338 106
-125 63 -193 152 -334 429 l-45 89 -44 -94z"/>
<path d="M1913 3728 c-1 -7 -4 -42 -9 -78 -10 -81 -10 -286 0 -360 13 -97 16
-113 42 -218 26 -108 88 -271 143 -380 17 -34 28 -62 23 -62 -4 0 -35 9 -68
19 -32 11 -160 52 -284 91 -124 40 -272 88 -330 106 -58 19 -109 34 -112 34
-9 0 38 -169 68 -250 157 -413 437 -745 904 -1072 l44 -31 -254 -83 c-140 -46
-293 -96 -339 -112 -85 -29 -102 -45 -78 -75 31 -38 593 -348 745 -412 164
-68 435 -151 552 -169 19 -3 46 -8 60 -11 102 -22 278 -37 440 -38 184 -1 187
0 270 150 120 214 251 457 262 486 6 14 4 17 -10 13 -15 -4 -63 -11 -152 -22
-167 -21 -526 -20 -640 1 -8 1 -35 6 -60 9 -69 11 -134 26 -268 63 -142 40
-247 81 -396 154 l-107 53 53 26 c29 14 94 43 143 64 50 22 126 56 170 76 44
20 151 67 237 106 87 38 158 72 158 75 0 4 -10 9 -22 12 -13 3 -66 21 -118 41
-92 35 -108 41 -167 68 -68 31 -292 166 -364 219 -114 85 -207 184 -267 286
-65 110 -66 121 -9 117 23 -2 105 -6 182 -8 77 -3 197 -8 268 -12 70 -3 127
-4 127 -1 0 3 -74 157 -165 342 -125 255 -174 345 -203 373 -21 20 -91 87
-156 147 -138 128 -141 130 -228 213 -67 62 -84 73 -85 50z"/>
<path d="M4 3318 c6 -237 7 -243 42 -448 96 -564 349 -1133 699 -1570 72 -90
254 -280 268 -280 15 0 507 290 507 299 0 4 -12 19 -27 33 -61 54 -203 209
-279 304 -316 393 -532 881 -600 1354 -3 25 -7 52 -9 60 -2 8 -6 44 -9 80 -23
223 -7 201 -181 259 -138 46 -385 121 -400 121 -15 0 -16 -21 -11 -212z"/>
<path d="M3526 3282 c-127 -355 -183 -430 -436 -582 -58 -35 -122 -74 -142
-88 l-38 -24 23 -17 c128 -98 323 -145 627 -152 71 -2 87 -5 98 -21 16 -22 16
-23 -75 -118 -34 -36 -78 -83 -98 -105 -21 -22 -78 -82 -127 -133 -50 -51 -87
-96 -84 -99 27 -27 344 -39 471 -18 88 15 279 69 443 124 94 33 172 58 172 56
0 -4 -31 -90 -140 -390 -34 -93 -79 -218 -100 -277 l-39 -106 27 4 c75 13 198
62 358 144 304 155 558 358 761 610 160 198 161 226 36 535 -112 275 -162 379
-199 409 -19 15 -37 26 -38 24 -2 -1 -20 -48 -41 -103 -50 -132 -133 -297
-203 -403 -93 -143 -325 -359 -425 -398 -16 -6 -17 22 -17 346 l0 352 -77 -75
c-99 -97 -186 -166 -271 -217 -116 -68 -323 -133 -309 -96 12 30 65 262 72
309 4 27 9 59 11 70 11 54 5 245 -10 300 -28 108 -88 192 -163 230 l-29 15
-38 -106z"/>
<path d="M5544 1426 c-49 -36 -133 -98 -188 -138 -410 -303 -669 -447 -1006
-558 -157 -52 -393 -104 -569 -125 -98 -12 -123 -22 -141 -55 -10 -19 -123
-365 -171 -523 l-8 -28 107 6 c144 8 268 20 412 41 32 5 206 39 255 49 77 17
290 82 379 115 457 169 800 384 1219 763 l37 34 -83 169 c-46 93 -99 202 -119
242 l-35 73 -89 -65z"/>
</g>
</svg>
